<mxfile host="6c80a82d-9f14-4238-8678-52fa471c5919" modified="2020-09-08T08:20:08.030Z" agent="5.0 (Macintosh; Intel Mac OS X 10_15_6) AppleWebKit/537.36 (KHTML, like Gecko) Code/1.48.2 Chrome/78.0.3904.130 Electron/7.3.2 Safari/537.36" etag="MppmiceaUHGH3zkgWvpZ" version="13.1.3">
    <diagram id="6hGFLwfOUW9BJ-s0fimq" name="Page-1">
        <mxGraphModel dx="998" dy="782" grid="1" gridSize="10" guides="1" tooltips="1" connect="1" arrows="1" fold="1" page="1" pageScale="1" pageWidth="827" pageHeight="1169" math="0" shadow="0">
            <root>
                <mxCell id="0"/>
                <mxCell id="1" parent="0"/>
                <mxCell id="76" value="" style="rounded=1;whiteSpace=wrap;html=1;strokeColor=#FFFFFF;fillColor=none;fontSize=16;arcSize=3;" vertex="1" parent="1">
                    <mxGeometry x="1371" y="181" width="203" height="140" as="geometry"/>
                </mxCell>
                <mxCell id="75" value="" style="rounded=1;whiteSpace=wrap;html=1;strokeColor=#FFFFFF;fillColor=none;fontSize=16;arcSize=3;" vertex="1" parent="1">
                    <mxGeometry x="908" y="181" width="203" height="140" as="geometry"/>
                </mxCell>
                <mxCell id="23" value="" style="rounded=1;whiteSpace=wrap;html=1;fillColor=none;" parent="1" vertex="1">
                    <mxGeometry x="127.5" y="370" width="95" height="80" as="geometry"/>
                </mxCell>
                <mxCell id="2" value="" style="rounded=1;whiteSpace=wrap;html=1;" parent="1" vertex="1">
                    <mxGeometry x="100" y="110" width="510" height="140" as="geometry"/>
                </mxCell>
                <mxCell id="4" value="" style="rounded=1;whiteSpace=wrap;html=1;" parent="1" vertex="1">
                    <mxGeometry x="110" y="120" width="220" height="120" as="geometry"/>
                </mxCell>
                <mxCell id="5" value="" style="rounded=1;whiteSpace=wrap;html=1;" parent="1" vertex="1">
                    <mxGeometry x="110" y="120" width="70" height="120" as="geometry"/>
                </mxCell>
                <mxCell id="6" value="&lt;meta charset=&quot;utf-8&quot;&gt;&lt;div style=&quot;color: rgb(212, 212, 212); background-color: rgb(30, 30, 30); font-family: Menlo, Monaco, &amp;quot;Courier New&amp;quot;, monospace; font-weight: normal; font-size: 18px; line-height: 27px;&quot;&gt;&lt;div&gt;&lt;span style=&quot;color: #4fc1ff;&quot;&gt;targetMap&lt;/span&gt;&lt;/div&gt;&lt;/div&gt;" style="text;html=1;strokeColor=none;fillColor=none;align=center;verticalAlign=middle;whiteSpace=wrap;rounded=0;" parent="1" vertex="1">
                    <mxGeometry x="460" y="100" width="40" height="20" as="geometry"/>
                </mxCell>
                <mxCell id="7" value="&lt;div style=&quot;background-color: rgb(30 , 30 , 30) ; font-family: &amp;#34;menlo&amp;#34; , &amp;#34;monaco&amp;#34; , &amp;#34;courier new&amp;#34; , monospace ; font-weight: normal ; line-height: 27px&quot;&gt;&lt;div style=&quot;font-family: &amp;#34;menlo&amp;#34; , &amp;#34;monaco&amp;#34; , &amp;#34;courier new&amp;#34; , monospace ; line-height: 27px&quot;&gt;&lt;font color=&quot;#9cdcfe&quot;&gt;&lt;span style=&quot;font-size: 16px&quot;&gt;depsMap&lt;/span&gt;&lt;/font&gt;&lt;/div&gt;&lt;/div&gt;" style="text;html=1;strokeColor=none;fillColor=none;align=center;verticalAlign=middle;whiteSpace=wrap;rounded=0;" parent="1" vertex="1">
                    <mxGeometry x="230" y="113" width="40" height="20" as="geometry"/>
                </mxCell>
                <mxCell id="10" value="&lt;font style=&quot;font-size: 16px&quot; color=&quot;#66ff66&quot;&gt;dep&lt;/font&gt;" style="text;html=1;strokeColor=#005700;fillColor=#1A1A1A;align=center;verticalAlign=middle;whiteSpace=wrap;rounded=0;fontColor=#ffffff;" parent="1" vertex="1">
                    <mxGeometry x="125" y="120" width="40" height="20" as="geometry"/>
                </mxCell>
                <mxCell id="11" value="Set" style="text;html=1;strokeColor=none;fillColor=none;align=center;verticalAlign=middle;whiteSpace=wrap;rounded=0;" parent="1" vertex="1">
                    <mxGeometry x="125" y="210" width="40" height="20" as="geometry"/>
                </mxCell>
                <mxCell id="12" value="" style="rounded=1;whiteSpace=wrap;html=1;fillColor=#1ba1e2;strokeColor=#006EAF;fontColor=#ffffff;" parent="1" vertex="1">
                    <mxGeometry x="110" y="165" width="70" height="25" as="geometry"/>
                </mxCell>
                <mxCell id="15" value="" style="shape=hexagon;perimeter=hexagonPerimeter2;whiteSpace=wrap;html=1;size=0.0379746835443038;" parent="1" vertex="1">
                    <mxGeometry x="100" y="370" width="395" height="80" as="geometry"/>
                </mxCell>
                <mxCell id="19" style="edgeStyle=orthogonalEdgeStyle;rounded=0;orthogonalLoop=1;jettySize=auto;html=1;entryX=0;entryY=0.5;entryDx=0;entryDy=0;" parent="1" source="16" target="12" edge="1">
                    <mxGeometry relative="1" as="geometry">
                        <Array as="points">
                            <mxPoint x="394" y="340"/>
                            <mxPoint x="90" y="340"/>
                            <mxPoint x="90" y="178"/>
                        </Array>
                    </mxGeometry>
                </mxCell>
                <mxCell id="16" value="&lt;div style=&quot;color: rgb(212 , 212 , 212) ; background-color: rgb(30 , 30 , 30) ; font-family: &amp;#34;menlo&amp;#34; , &amp;#34;monaco&amp;#34; , &amp;#34;courier new&amp;#34; , monospace ; font-weight: normal ; font-size: 18px ; line-height: 27px&quot;&gt;&lt;div&gt;&lt;span style=&quot;color: #4fc1ff&quot;&gt;activeEffect&lt;/span&gt;&lt;/div&gt;&lt;/div&gt;" style="text;html=1;strokeColor=none;fillColor=none;align=center;verticalAlign=middle;whiteSpace=wrap;rounded=0;" parent="1" vertex="1">
                    <mxGeometry x="374" y="360" width="40" height="20" as="geometry"/>
                </mxCell>
                <mxCell id="17" value="deps" style="text;html=1;strokeColor=none;fillColor=none;align=center;verticalAlign=middle;whiteSpace=wrap;rounded=0;" parent="1" vertex="1">
                    <mxGeometry x="155" y="370" width="40" height="20" as="geometry"/>
                </mxCell>
                <mxCell id="18" value="" style="rounded=1;whiteSpace=wrap;html=1;fillColor=#33FF33;strokeColor=#005700;fontColor=#ffffff;" parent="1" vertex="1">
                    <mxGeometry x="140" y="420" width="70" height="25" as="geometry"/>
                </mxCell>
                <mxCell id="21" style="edgeStyle=orthogonalEdgeStyle;rounded=0;orthogonalLoop=1;jettySize=auto;html=1;entryX=0;entryY=0.5;entryDx=0;entryDy=0;" parent="1" source="10" target="18" edge="1">
                    <mxGeometry relative="1" as="geometry">
                        <Array as="points">
                            <mxPoint x="40" y="130"/>
                            <mxPoint x="40" y="433"/>
                        </Array>
                    </mxGeometry>
                </mxCell>
                <mxCell id="24" value="&lt;font style=&quot;font-size: 14px&quot;&gt;length&lt;/font&gt;" style="rounded=1;whiteSpace=wrap;html=1;fillColor=none;strokeColor=#C73500;fontColor=#ffffff;" vertex="1" parent="1">
                    <mxGeometry x="520" y="130" width="80" height="27" as="geometry"/>
                </mxCell>
                <mxCell id="25" value="&lt;font style=&quot;font-size: 14px&quot;&gt;ITERATE_KEY&lt;/font&gt;" style="rounded=1;whiteSpace=wrap;html=1;fillColor=none;strokeColor=#C73500;fontColor=#ffffff;" vertex="1" parent="1">
                    <mxGeometry x="500" y="165" width="100" height="30" as="geometry"/>
                </mxCell>
                <mxCell id="26" value="&lt;font style=&quot;font-size: 14px&quot;&gt;MAP_ITERATE_KEY&lt;/font&gt;" style="rounded=1;whiteSpace=wrap;html=1;fillColor=none;strokeColor=#C73500;fontColor=#ffffff;" vertex="1" parent="1">
                    <mxGeometry x="460" y="200" width="140" height="30" as="geometry"/>
                </mxCell>
                <mxCell id="51" style="edgeStyle=orthogonalEdgeStyle;rounded=0;orthogonalLoop=1;jettySize=auto;html=1;" edge="1" parent="1" source="32" target="50">
                    <mxGeometry relative="1" as="geometry">
                        <Array as="points">
                            <mxPoint x="260" y="595"/>
                            <mxPoint x="260" y="595"/>
                        </Array>
                    </mxGeometry>
                </mxCell>
                <mxCell id="107" value="" style="edgeStyle=orthogonalEdgeStyle;rounded=0;orthogonalLoop=1;jettySize=auto;html=1;fontSize=16;fontColor=#333333;" edge="1" parent="1" source="32" target="103">
                    <mxGeometry relative="1" as="geometry">
                        <Array as="points">
                            <mxPoint x="310" y="620"/>
                        </Array>
                    </mxGeometry>
                </mxCell>
                <mxCell id="32" value="" style="rounded=1;whiteSpace=wrap;html=1;fillColor=none;arcSize=6;" vertex="1" parent="1">
                    <mxGeometry x="100" y="580" width="120" height="230" as="geometry"/>
                </mxCell>
                <mxCell id="33" value="&lt;font style=&quot;font-size: 16px&quot;&gt;getter&lt;br&gt;(first argument)&lt;br&gt;&lt;/font&gt;" style="text;html=1;strokeColor=none;fillColor=none;align=center;verticalAlign=middle;whiteSpace=wrap;rounded=0;" vertex="1" parent="1">
                    <mxGeometry x="90" y="590" width="140" height="20" as="geometry"/>
                </mxCell>
                <mxCell id="35" value="&lt;font style=&quot;font-size: 16px&quot;&gt;Ref&lt;/font&gt;" style="rounded=1;whiteSpace=wrap;html=1;fillColor=none;strokeColor=#B5739D;" vertex="1" parent="1">
                    <mxGeometry x="100" y="640" width="120" height="30" as="geometry"/>
                </mxCell>
                <mxCell id="104" value="" style="edgeStyle=orthogonalEdgeStyle;rounded=0;orthogonalLoop=1;jettySize=auto;html=1;fontSize=16;fontColor=#333333;" edge="1" parent="1" source="38" target="103">
                    <mxGeometry relative="1" as="geometry">
                        <Array as="points">
                            <mxPoint x="245" y="685"/>
                            <mxPoint x="245" y="710"/>
                        </Array>
                    </mxGeometry>
                </mxCell>
                <mxCell id="38" value="&lt;font style=&quot;font-size: 16px&quot;&gt;Reactive&lt;/font&gt;" style="rounded=1;whiteSpace=wrap;html=1;fillColor=#647687;strokeColor=#314354;fontColor=#ffffff;" vertex="1" parent="1">
                    <mxGeometry x="100" y="670" width="120" height="30" as="geometry"/>
                </mxCell>
                <mxCell id="48" style="edgeStyle=orthogonalEdgeStyle;rounded=0;orthogonalLoop=1;jettySize=auto;html=1;" edge="1" parent="1" source="39">
                    <mxGeometry relative="1" as="geometry">
                        <mxPoint x="40" y="750" as="targetPoint"/>
                    </mxGeometry>
                </mxCell>
                <mxCell id="39" value="&lt;font style=&quot;font-size: 16px&quot;&gt;Array&lt;/font&gt;" style="rounded=1;whiteSpace=wrap;html=1;fillColor=none;strokeColor=#B5739D;fontColor=#ffffff;" vertex="1" parent="1">
                    <mxGeometry x="100" y="700" width="120" height="30" as="geometry"/>
                </mxCell>
                <mxCell id="47" style="edgeStyle=orthogonalEdgeStyle;rounded=0;orthogonalLoop=1;jettySize=auto;html=1;entryX=0;entryY=0.5;entryDx=0;entryDy=0;" edge="1" parent="1" source="40" target="46">
                    <mxGeometry relative="1" as="geometry">
                        <Array as="points">
                            <mxPoint x="40" y="745"/>
                            <mxPoint x="40" y="890"/>
                        </Array>
                    </mxGeometry>
                </mxCell>
                <mxCell id="40" value="&lt;font style=&quot;font-size: 16px&quot;&gt;Function&lt;/font&gt;" style="rounded=1;whiteSpace=wrap;html=1;fillColor=none;strokeColor=#B5739D;" vertex="1" parent="1">
                    <mxGeometry x="100" y="730" width="120" height="30" as="geometry"/>
                </mxCell>
                <mxCell id="43" style="edgeStyle=orthogonalEdgeStyle;rounded=0;orthogonalLoop=1;jettySize=auto;html=1;entryX=0.5;entryY=0;entryDx=0;entryDy=0;" edge="1" parent="1" source="41" target="42">
                    <mxGeometry relative="1" as="geometry"/>
                </mxCell>
                <mxCell id="41" value="&lt;font style=&quot;font-size: 16px&quot;&gt;Function + Cb&lt;/font&gt;" style="rounded=1;whiteSpace=wrap;html=1;fillColor=none;strokeColor=#B5739D;" vertex="1" parent="1">
                    <mxGeometry x="100" y="760" width="120" height="30" as="geometry"/>
                </mxCell>
                <mxCell id="42" value="&lt;font style=&quot;font-size: 16px&quot;&gt;watchEffect&lt;br&gt;(onInvalidate)&lt;br&gt;&lt;/font&gt;" style="rounded=1;whiteSpace=wrap;html=1;strokeColor=#E6E6E6;fillColor=none;" vertex="1" parent="1">
                    <mxGeometry x="270" y="860" width="120" height="60" as="geometry"/>
                </mxCell>
                <mxCell id="46" value="&lt;font style=&quot;font-size: 16px&quot;&gt;watch(newVal, oldVal, onInvalidate)&lt;br&gt;&lt;/font&gt;" style="rounded=1;whiteSpace=wrap;html=1;strokeColor=#E6E6E6;fillColor=none;" vertex="1" parent="1">
                    <mxGeometry x="60" y="860" width="150" height="60" as="geometry"/>
                </mxCell>
                <mxCell id="52" style="edgeStyle=orthogonalEdgeStyle;rounded=0;orthogonalLoop=1;jettySize=auto;html=1;entryX=0;entryY=0.5;entryDx=0;entryDy=0;" edge="1" parent="1" source="50" target="53">
                    <mxGeometry relative="1" as="geometry">
                        <mxPoint x="398" y="710" as="targetPoint"/>
                    </mxGeometry>
                </mxCell>
                <mxCell id="55" style="edgeStyle=orthogonalEdgeStyle;rounded=0;orthogonalLoop=1;jettySize=auto;html=1;entryX=0;entryY=0.5;entryDx=0;entryDy=0;fontSize=16;" edge="1" parent="1" source="50" target="54">
                    <mxGeometry relative="1" as="geometry">
                        <Array as="points">
                            <mxPoint x="488" y="597"/>
                        </Array>
                    </mxGeometry>
                </mxCell>
                <mxCell id="59" style="edgeStyle=orthogonalEdgeStyle;rounded=0;orthogonalLoop=1;jettySize=auto;html=1;entryX=0;entryY=0.5;entryDx=0;entryDy=0;fontSize=14;" edge="1" parent="1" source="50" target="58">
                    <mxGeometry relative="1" as="geometry"/>
                </mxCell>
                <mxCell id="50" value="&lt;font style=&quot;font-size: 16px&quot;&gt;runner&lt;br&gt;(lazy effect)&lt;/font&gt;" style="ellipse;whiteSpace=wrap;html=1;aspect=fixed;strokeColor=#CCFFCC;fillColor=none;" vertex="1" parent="1">
                    <mxGeometry x="350" y="547" width="96" height="96" as="geometry"/>
                </mxCell>
                <mxCell id="53" value="initial run" style="rounded=1;whiteSpace=wrap;html=1;strokeColor=#FFFFFF;fillColor=none;fontSize=16;" vertex="1" parent="1">
                    <mxGeometry x="430" y="775" width="120" height="45" as="geometry"/>
                </mxCell>
                <mxCell id="56" style="edgeStyle=orthogonalEdgeStyle;rounded=0;orthogonalLoop=1;jettySize=auto;html=1;fontSize=16;entryX=1;entryY=0.5;entryDx=0;entryDy=0;" edge="1" parent="1" source="54" target="53">
                    <mxGeometry relative="1" as="geometry">
                        <mxPoint x="560" y="738" as="targetPoint"/>
                        <Array as="points">
                            <mxPoint x="577" y="798"/>
                        </Array>
                    </mxGeometry>
                </mxCell>
                <mxCell id="61" style="edgeStyle=orthogonalEdgeStyle;rounded=0;orthogonalLoop=1;jettySize=auto;html=1;entryX=0;entryY=0.5;entryDx=0;entryDy=0;fontSize=14;" edge="1" parent="1" source="54" target="60">
                    <mxGeometry relative="1" as="geometry">
                        <Array as="points">
                            <mxPoint x="630" y="595"/>
                            <mxPoint x="630" y="595"/>
                        </Array>
                    </mxGeometry>
                </mxCell>
                <mxCell id="54" value="job&lt;br style=&quot;font-size: 16px;&quot;&gt;(handle cb)" style="ellipse;whiteSpace=wrap;html=1;aspect=fixed;strokeColor=#CCFFCC;fillColor=none;fontSize=16;" vertex="1" parent="1">
                    <mxGeometry x="530" y="550" width="93" height="93" as="geometry"/>
                </mxCell>
                <mxCell id="57" value="cb &amp;amp; immediate" style="shape=parallelogram;perimeter=parallelogramPerimeter;whiteSpace=wrap;html=1;strokeColor=#FFFFFF;fillColor=#333333;fontSize=14;" vertex="1" parent="1">
                    <mxGeometry x="500" y="720" width="160" height="30" as="geometry"/>
                </mxCell>
                <mxCell id="58" value="copy to instance.effects" style="rounded=1;whiteSpace=wrap;html=1;strokeColor=#FFFFFF;fillColor=none;fontSize=16;" vertex="1" parent="1">
                    <mxGeometry x="430" y="850" width="120" height="45" as="geometry"/>
                </mxCell>
                <mxCell id="60" value="scheduler" style="shape=hexagon;perimeter=hexagonPerimeter2;whiteSpace=wrap;html=1;strokeColor=#FFFFFF;fillColor=#333333;fontSize=16;" vertex="1" parent="1">
                    <mxGeometry x="680" y="555" width="120" height="80" as="geometry"/>
                </mxCell>
                <mxCell id="80" style="edgeStyle=orthogonalEdgeStyle;rounded=0;orthogonalLoop=1;jettySize=auto;html=1;fontSize=16;" edge="1" parent="1" source="63">
                    <mxGeometry relative="1" as="geometry">
                        <mxPoint x="1000" y="283" as="targetPoint"/>
                    </mxGeometry>
                </mxCell>
                <mxCell id="63" value="flush='sync', exec immediately when trigger" style="rounded=1;whiteSpace=wrap;html=1;strokeColor=#FFFFFF;fillColor=none;fontSize=16;" vertex="1" parent="1">
                    <mxGeometry x="840" y="490" width="320" height="45" as="geometry"/>
                </mxCell>
                <mxCell id="64" value="flush='pre', if no instance or instance is mounted, queue pre; else execute immediately" style="rounded=1;whiteSpace=wrap;html=1;strokeColor=#FFFFFF;fillColor=none;fontSize=16;" vertex="1" parent="1">
                    <mxGeometry x="840" y="575" width="340" height="50" as="geometry"/>
                </mxCell>
                <mxCell id="81" style="edgeStyle=orthogonalEdgeStyle;rounded=0;orthogonalLoop=1;jettySize=auto;html=1;entryX=0.5;entryY=1;entryDx=0;entryDy=0;fontSize=16;" edge="1" parent="1" source="65" target="76">
                    <mxGeometry relative="1" as="geometry"/>
                </mxCell>
                <mxCell id="65" value="else, queue post" style="rounded=1;whiteSpace=wrap;html=1;strokeColor=#FFFFFF;fillColor=none;fontSize=16;" vertex="1" parent="1">
                    <mxGeometry x="840" y="662.5" width="320" height="45" as="geometry"/>
                </mxCell>
                <mxCell id="66" value="" style="shape=curlyBracket;whiteSpace=wrap;html=1;rounded=1;strokeColor=#FFFFFF;fillColor=#333333;fontSize=16;size=0.15;" vertex="1" parent="1">
                    <mxGeometry x="807" y="510" width="20" height="170" as="geometry"/>
                </mxCell>
                <mxCell id="67" value="" style="endArrow=none;dashed=1;html=1;fontSize=16;entryX=0.759;entryY=1.025;entryDx=0;entryDy=0;entryPerimeter=0;exitX=0.5;exitY=0;exitDx=0;exitDy=0;" edge="1" parent="1" source="50" target="15">
                    <mxGeometry width="50" height="50" relative="1" as="geometry">
                        <mxPoint x="370" y="570" as="sourcePoint"/>
                        <mxPoint x="420" y="520" as="targetPoint"/>
                    </mxGeometry>
                </mxCell>
                <mxCell id="83" value="" style="edgeStyle=orthogonalEdgeStyle;rounded=0;orthogonalLoop=1;jettySize=auto;html=1;fontSize=16;" edge="1" parent="1" source="69" target="71">
                    <mxGeometry relative="1" as="geometry">
                        <Array as="points">
                            <mxPoint x="960" y="246"/>
                            <mxPoint x="960" y="246"/>
                        </Array>
                    </mxGeometry>
                </mxCell>
                <mxCell id="87" value="1" style="edgeLabel;html=1;align=center;verticalAlign=middle;resizable=0;points=[];fontSize=16;" vertex="1" connectable="0" parent="83">
                    <mxGeometry y="1" relative="1" as="geometry">
                        <mxPoint as="offset"/>
                    </mxGeometry>
                </mxCell>
                <mxCell id="69" value="pendingPreFlushCbs" style="rounded=1;whiteSpace=wrap;html=1;strokeColor=#FFFFFF;fillColor=#333333;fontSize=16;" vertex="1" parent="1">
                    <mxGeometry x="908" y="181" width="203" height="40" as="geometry"/>
                </mxCell>
                <mxCell id="77" style="edgeStyle=orthogonalEdgeStyle;rounded=0;orthogonalLoop=1;jettySize=auto;html=1;entryX=0.25;entryY=1;entryDx=0;entryDy=0;fontSize=16;" edge="1" parent="1" source="71" target="74">
                    <mxGeometry relative="1" as="geometry"/>
                </mxCell>
                <mxCell id="89" value="2" style="edgeLabel;html=1;align=center;verticalAlign=middle;resizable=0;points=[];fontSize=16;" vertex="1" connectable="0" parent="77">
                    <mxGeometry x="0.0842" relative="1" as="geometry">
                        <mxPoint as="offset"/>
                    </mxGeometry>
                </mxCell>
                <mxCell id="82" value="" style="edgeStyle=orthogonalEdgeStyle;rounded=0;orthogonalLoop=1;jettySize=auto;html=1;fontSize=16;" edge="1" parent="1" source="71" target="69">
                    <mxGeometry relative="1" as="geometry">
                        <Array as="points">
                            <mxPoint x="1060" y="256"/>
                            <mxPoint x="1060" y="256"/>
                        </Array>
                    </mxGeometry>
                </mxCell>
                <mxCell id="88" value="2'" style="edgeLabel;html=1;align=center;verticalAlign=middle;resizable=0;points=[];fontSize=16;" vertex="1" connectable="0" parent="82">
                    <mxGeometry x="-0.0667" y="-2" relative="1" as="geometry">
                        <mxPoint x="-2" y="-2" as="offset"/>
                    </mxGeometry>
                </mxCell>
                <mxCell id="71" value="activePreFlushCbs" style="rounded=1;whiteSpace=wrap;html=1;strokeColor=#FFFFFF;fillColor=#6666FF;fontSize=16;gradientColor=none;" vertex="1" parent="1">
                    <mxGeometry x="908" y="281" width="203" height="40" as="geometry"/>
                </mxCell>
                <mxCell id="84" value="" style="edgeStyle=orthogonalEdgeStyle;rounded=0;orthogonalLoop=1;jettySize=auto;html=1;fontSize=16;" edge="1" parent="1" source="72" target="73">
                    <mxGeometry relative="1" as="geometry"/>
                </mxCell>
                <mxCell id="96" value="4" style="edgeLabel;html=1;align=center;verticalAlign=middle;resizable=0;points=[];fontSize=16;" vertex="1" connectable="0" parent="84">
                    <mxGeometry x="-0.1333" y="5" relative="1" as="geometry">
                        <mxPoint as="offset"/>
                    </mxGeometry>
                </mxCell>
                <mxCell id="72" value="pendingPostFlushCbs" style="rounded=1;whiteSpace=wrap;html=1;strokeColor=#FFFFFF;fillColor=#333333;fontSize=16;" vertex="1" parent="1">
                    <mxGeometry x="1371" y="181" width="203" height="40" as="geometry"/>
                </mxCell>
                <mxCell id="85" style="edgeStyle=orthogonalEdgeStyle;rounded=0;orthogonalLoop=1;jettySize=auto;html=1;entryX=0;entryY=0.5;entryDx=0;entryDy=0;fontSize=16;" edge="1" parent="1" source="73" target="69">
                    <mxGeometry relative="1" as="geometry">
                        <Array as="points">
                            <mxPoint x="1473" y="346"/>
                            <mxPoint x="860" y="346"/>
                            <mxPoint x="860" y="201"/>
                        </Array>
                    </mxGeometry>
                </mxCell>
                <mxCell id="97" value="5'" style="edgeLabel;html=1;align=center;verticalAlign=middle;resizable=0;points=[];fontSize=16;" vertex="1" connectable="0" parent="85">
                    <mxGeometry x="-0.3462" y="2" relative="1" as="geometry">
                        <mxPoint as="offset"/>
                    </mxGeometry>
                </mxCell>
                <mxCell id="73" value="activePostFlushCbs" style="rounded=1;whiteSpace=wrap;html=1;strokeColor=#FFFFFF;fillColor=#6666FF;fontSize=16;gradientColor=none;" vertex="1" parent="1">
                    <mxGeometry x="1371" y="281" width="203" height="40" as="geometry"/>
                </mxCell>
                <mxCell id="94" value="" style="edgeStyle=orthogonalEdgeStyle;rounded=0;orthogonalLoop=1;jettySize=auto;html=1;fontSize=16;entryX=-0.01;entryY=0.171;entryDx=0;entryDy=0;entryPerimeter=0;" edge="1" parent="1" source="74" target="76">
                    <mxGeometry relative="1" as="geometry">
                        <mxPoint x="1242.5" y="158.5" as="targetPoint"/>
                        <Array as="points">
                            <mxPoint x="1243" y="205"/>
                        </Array>
                    </mxGeometry>
                </mxCell>
                <mxCell id="95" value="3" style="edgeLabel;html=1;align=center;verticalAlign=middle;resizable=0;points=[];fontSize=16;" vertex="1" connectable="0" parent="94">
                    <mxGeometry x="0.1507" relative="1" as="geometry">
                        <mxPoint as="offset"/>
                    </mxGeometry>
                </mxCell>
                <mxCell id="74" value="queue" style="rounded=1;whiteSpace=wrap;html=1;strokeColor=#FFFFFF;fillColor=#6666FF;fontSize=16;gradientColor=none;" vertex="1" parent="1">
                    <mxGeometry x="1141" y="238.5" width="203" height="40" as="geometry"/>
                </mxCell>
                <mxCell id="100" style="edgeStyle=orthogonalEdgeStyle;rounded=0;orthogonalLoop=1;jettySize=auto;html=1;entryX=0.5;entryY=0;entryDx=0;entryDy=0;fontSize=16;fontColor=#333333;exitX=1;exitY=0.5;exitDx=0;exitDy=0;" edge="1" parent="1" source="99" target="75">
                    <mxGeometry relative="1" as="geometry">
                        <Array as="points">
                            <mxPoint x="1010" y="117"/>
                            <mxPoint x="1010" y="118"/>
                        </Array>
                    </mxGeometry>
                </mxCell>
                <mxCell id="99" value="flushJob in Promise" style="rounded=0;whiteSpace=wrap;html=1;strokeColor=#000000;fillColor=#FFE599;gradientColor=none;fontSize=16;fontColor=#333333;" vertex="1" parent="1">
                    <mxGeometry x="850" y="92" width="100" height="50" as="geometry"/>
                </mxCell>
                <mxCell id="103" value="&lt;font style=&quot;font-size: 16px&quot;&gt;traverse&lt;br&gt;&lt;/font&gt;" style="rounded=1;whiteSpace=wrap;html=1;strokeColor=#E6E6E6;fillColor=none;" vertex="1" parent="1">
                    <mxGeometry x="270" y="692.5" width="100" height="37.5" as="geometry"/>
                </mxCell>
                <mxCell id="105" value="deep" style="shape=parallelogram;perimeter=parallelogramPerimeter;whiteSpace=wrap;html=1;strokeColor=#FFFFFF;fillColor=#333333;fontSize=14;size=0.19047619047619047;" vertex="1" parent="1">
                    <mxGeometry x="277" y="635" width="60" height="26" as="geometry"/>
                </mxCell>
            </root>
        </mxGraphModel>
    </diagram>
</mxfile>